<svg width="40" height="40" viewBox="0 0 40 40" fill="none" xmlns="http://www.w3.org/2000/svg">
<circle cx="20" cy="20" r="20" fill="#F03B8C"/>
<path d="M6.17188 18.8281H18.8281V6.17188C18.8281 5.52465 19.3528 5 20 5C20.6472 5 21.1719 5.52465 21.1719 6.17188V18.8281H33.8281C34.4754 18.8281 35 19.3528 35 20C35 20.6472 34.4754 21.1719 33.8281 21.1719H21.1719V33.8281C21.1719 34.4754 20.6472 35 20 35C19.3528 35 18.8281 34.4754 18.8281 33.8281V21.1719H6.17188C5.52465 21.1719 5 20.6472 5 20C5 19.3528 5.52465 18.8281 6.17188 18.8281Z" fill="white"/>
</svg>
